<?xml version="1.0" encoding="utf-8"?><svg viewBox="0 0 105 32" xmlns="http://www.w3.org/2000/svg" xmlns:xlink="http://www.w3.org/1999/xlink"><style>:root>svg{display:none}:root>svg:target{display:block}</style><svg viewBox="0 0 105 32" id="main-header-logo" xmlns="http://www.w3.org/2000/svg"><path fill="#efefef" d="M62.101 0h.955c5.265.465 10.452 3.298 13.012 8.026 3.19 5.796 2.519 13.486-1.775 18.55 1.786 1.858 3.587 3.706 5.512 5.419A4111.182 4111.182 0 0179.79 0h8.124c4.119.454 8.65 1.058 11.84 3.99 2.988 2.632 4.289 6.581 5.022 10.379v3.138c-.65 4.459-2.565 9.079-6.436 11.654-2.503 1.755-5.574 2.266-8.506 2.839H61.927c-6.839-.403-13.29-5.419-14.514-12.299-.021-2.637-2.534-3.969-4.191-5.621-.077 5.972.021 11.948-.052 17.92H32.698c-2.994-3.69-5.228-7.933-8.186-11.654 1.641 3.943 3.52 7.783 5.321 11.654H11.361c-.733-1.76-1.357-3.561-1.992-5.363 3.788-.031 7.577.021 11.365-.031-1.863-4.516-3.716-9.043-5.739-13.492-2.828 6.302-5.507 12.676-8.532 18.885H.182C5.096 21.408 10.226 10.915 15.119.314c2.441 4.991 4.619 10.111 7.086 15.092 2.968-.356 6.23.676 8.981-.764 3.257-1.786 2.828-7.303-.733-8.49-4.067-1.156-8.382-.356-12.552-.588.738-1.739 1.357-3.525 2.013-5.295 5.992.279 13.621-1.486 17.657 4.289.01-1.44.005-2.88 0-4.32 3.453 3.339 6.885 6.71 10.379 10.008C50.009 4.311 55.96.424 62.102.001zm-.202 1.889c.072 9.414-.212 18.839.15 28.243l1.29-.036c.005-9.419-.005-18.839.005-28.258-.361.01-1.084.036-1.445.052zm-12.598 9.662c2.183 2.307 4.537 4.454 6.787 6.699.098-4.955.031-9.915.041-14.87-3.2 1.775-5.585 4.748-6.828 8.17zm19.7-8.046c-.088 7.711-.01 15.427-.041 23.138.872.005 1.75.01 2.627.01 7.21-6.085 5.832-18.828-2.586-23.148zM85.44 5.559c-.021 6.983-.015 13.966 0 20.95 3.195.026 6.679.083 9.399-1.868 5.548-3.608 5.615-12.728.475-16.733-2.71-2.297-6.498-2.385-9.874-2.348zM30.963 20.15c1.992 3.195 4.335 6.168 6.534 9.223.17-4.47.046-8.955.072-13.43-1.657 2.106-3.855 3.892-6.606 4.206zm18.167-.367c1.409 4.852 5.45 9.063 10.503 10.008-3.375-3.458-6.937-6.746-10.503-10.008z"/></svg><svg viewBox="0 0 9.56 6.82" id="signature" xmlns="http://www.w3.org/2000/svg"><defs><style>.bcls-1{fill:#efefef}</style></defs><g id="bСлой_2" data-name="Слой 2"><g id="bСлой_1-2" data-name="Слой 1"><path class="bcls-1" d="M6.33.52L6.5.27 6.32.22a7.54 7.54 0 01-2.44 5.1 4 4 0 01-2.81 1.31A1 1 0 01.2 5.52 1.8 1.8 0 011 4.26a2.61 2.61 0 011.7-.39 2.26 2.26 0 01.89.23c.25.14.45.5.2.74-.09.09 0 .22.13.14.39-.37.07-.91-.33-1.1a3 3 0 00-1.71-.17A2 2 0 00.05 6c.35 1.35 2.13.73 2.95.23a7.31 7.31 0 002.36-2.41A7.57 7.57 0 006.51.22a.1.1 0 00-.18 0l-.17.2a.1.1 0 00.17.1z"/><path class="bcls-1" d="M7 .4V.09C7-.02 6.84 0 6.82.07A19.64 19.64 0 015.18 4.7a.09.09 0 10.16.09L5.89 4c.1-.15.21-.34.07-.5s-.37-.11-.54-.1h-1v.18a10.43 10.43 0 013.14-.93c.12 0 .12-.2 0-.19a10.75 10.75 0 00-3.23 1c-.09 0 0 .18 0 .18h1.04a1 1 0 01.3 0c.15 0 .1.18 0 .28l-.18.27-.39.59.16.1A19.63 19.63 0 007 .12a1.08 1.08 0 01-.19 0v.31A.1.1 0 007 .4z"/><path class="bcls-1" d="M6.5 3c-.2.53-.42 1.06-.67 1.57 0 .09 0 .17.13.13h.07c.11-.05 0-.21-.1-.16h-.07l.14.15c.25-.53.49-1.07.7-1.62 0-.12-.15-.17-.19 0z"/><path class="bcls-1" d="M6.67 3.09A1.19 1.19 0 016.4 3a.94.94 0 000 .16 1.34 1.34 0 01.71-.31 1.2 1.2 0 01.38 0c.08 0 .16.05.12.16s-.13.11-.18.14a2.26 2.26 0 01-1.41.14c-.11 0-.13.17 0 .18l.87.14c.12 0 .17-.16 0-.18l-.87-.14a1.25 1.25 0 010 .19 3.56 3.56 0 001.08 0c.25-.06.68-.21.75-.5s-.42-.34-.62-.33a1.5 1.5 0 00-1 .37c-.06.05 0 .13 0 .16a1.3 1.3 0 00.33.07c.12 0 .12-.18 0-.19z"/><path class="bcls-1" d="M8.22 1.85a.29.29 0 00-.15-.14.1.1 0 00-.14.06l-.75 2.39a.09.09 0 10.18 0c.25-.8.51-1.6.76-2.39l-.12.1.08.07c.07.1.23 0 .17-.09z"/><path class="bcls-1" d="M8.63 1.94a3.72 3.72 0 00.09-.81c0-.12-.15-.12-.18 0-.34.91-.67 1.81-1 2.72 0 .09.09.15.16.09l.09-.09c.09-.08 0-.22-.13-.13a.39.39 0 01-.1.08l.16.09c.34-.9.67-1.8 1-2.71h-.18a4.78 4.78 0 01-.09.76c0 .13.16.18.18.06z"/><path class="bcls-1" d="M5.83 4.44a2.79 2.79 0 01.79-.61c.3-.17.61-.35.92-.51.64-.33 1.29-.63 2-.9.11 0 .06-.23-.05-.18a21.37 21.37 0 00-2.06.95c-.33.17-.66.36-1 .55a2.54 2.54 0 00-.74.6c-.08.1.09.2.16.1z"/></g></g></svg></svg>